Coordinates
version=1
nRows=14
nColumns=38
inDegrees=no

Units are S.I. units (second, meters, Newtons, ...)
If the header above contains a line with 'inDegrees', this indicates whether rotational values are in degrees (yes) or radians (no).

endheader
time	pelvis_tilt	pelvis_list	pelvis_rotation	pelvis_tx	pelvis_ty	pelvis_tz	hip_flexion_r	hip_adduction_r	hip_rotation_r	knee_angle_r	ankle_angle_r	subtalar_angle_r	mtp_angle_r	hip_flexion_l	hip_adduction_l	hip_rotation_l	knee_angle_l	ankle_angle_l	subtalar_angle_l	mtp_angle_l	lumbar_extension	lumbar_bending	lumbar_rotation	arm_flex_r	arm_add_r	arm_rot_r	elbow_flex_r	pro_sup_r	wrist_flex_r	wrist_dev_r	arm_flex_l	arm_add_l	arm_rot_l	elbow_flex_l	pro_sup_l	wrist_flex_l	wrist_dev_l
13.83	0.405132	1.32661	1.13865	0.755993	1.30265	0.957706	0.472817	0.01899	-0.0369921	0.813641	0.158152	0	0	-0.0248557	-0.0162957	-0.197772	0.0576178	0.130295	0	0	-0.113121	0.132827	0.122839	0.327388	-0.535057	0.395461	1.07106	1.10934	0	0	0.368176	-0.217302	0.487644	1.08189	1.23361	0	0
13.84	0.405223	1.32408	1.14123	0.756068	1.30518	0.957727	0.478898	0.0208978	-0.0379323	0.806292	0.158985	0	0	-0.0240359	-0.0179434	-0.19548	0.0593037	0.128837	0	0	-0.110491	0.134025	0.120563	0.318479	-0.535008	0.389999	1.07777	1.11311	0	0	0.359679	-0.217913	0.48452	1.08783	1.23957	0	0
13.85	0.406194	1.32171	1.14263	0.756195	1.30775	0.95776	0.484342	0.0231673	-0.0390982	0.79725	0.159409	0	0	-0.0233254	-0.0198847	-0.194022	0.0615926	0.128922	0	0	-0.108183	0.135287	0.118463	0.310073	-0.53471	0.384946	1.08412	1.11644	0	0	0.351749	-0.218807	0.481672	1.09421	1.24241	0	0
13.86	0.407712	1.31955	1.14298	0.756401	1.31035	0.957808	0.489287	0.0255966	-0.0405251	0.786915	0.159317	0	0	-0.0228129	-0.0219812	-0.193834	0.0643789	0.129519	0	0	-0.106274	0.136504	0.116447	0.302486	-0.534621	0.381956	1.08996	1.11921	0	0	0.344045	-0.220154	0.478561	1.1009	1.24431	0	0
13.87	0.409393	1.3165	1.1429	0.756602	1.31301	0.9578	0.494909	0.0277974	-0.0436268	0.775415	0.158517	0	0	-0.0213842	-0.0244514	-0.194067	0.0673501	0.130005	0	0	-0.103801	0.138352	0.113858	0.29489	-0.534438	0.378962	1.09645	1.12793	0	0	0.334079	-0.220993	0.469517	1.1091	1.26489	0	0
13.88	0.410984	1.31392	1.14268	0.756847	1.31567	0.957837	0.500048	0.0294846	-0.0473435	0.763144	0.157586	0	0	-0.0206189	-0.0265446	-0.192988	0.0695662	0.129453	0	0	-0.101751	0.139829	0.112324	0.286647	-0.53485	0.376374	1.103	1.12897	0	0	0.326097	-0.222826	0.466561	1.11548	1.2713	0	0
13.89	0.413393	1.3109	1.1413	0.757135	1.31836	0.957862	0.505188	0.0315745	-0.0517113	0.749676	0.156676	0	0	-0.0194577	-0.0291129	-0.192161	0.072106	0.129207	0	0	-0.0994507	0.141774	0.111245	0.277695	-0.535513	0.373384	1.11051	1.13016	0	0	0.31778	-0.224968	0.46462	1.12159	1.2782	0	0
13.9	0.415817	1.30781	1.13947	0.757478	1.32109	0.957889	0.510145	0.0337777	-0.0565022	0.735299	0.155614	0	0	-0.0183627	-0.0318947	-0.191871	0.0749128	0.129293	0	0	-0.0970487	0.143803	0.110745	0.268371	-0.536311	0.370565	1.11835	1.12741	0	0	0.309881	-0.227914	0.465903	1.12818	1.26838	0	0
13.91	0.418293	1.30429	1.13741	0.757845	1.32387	0.957901	0.515132	0.0361673	-0.0618423	0.719806	0.154124	0	0	-0.0167051	-0.0351403	-0.192179	0.0785711	0.129991	0	0	-0.094304	0.14621	0.110318	0.258475	-0.536614	0.36605	1.12631	1.12951	0	0	0.300867	-0.230357	0.464233	1.13474	1.27327	0	0
13.92	0.421016	1.30064	1.13487	0.75819	1.32668	0.957907	0.520147	0.0382893	-0.068367	0.703802	0.151946	0	0	-0.0149081	-0.0384499	-0.192779	0.0823064	0.130542	0	0	-0.0916179	0.148935	0.10965	0.248822	-0.536414	0.360921	1.13363	1.14003	0	0	0.290497	-0.232512	0.459666	1.14149	1.2911	0	0
13.93	0.423914	1.29722	1.13181	0.758563	1.32948	0.957927	0.524867	0.0401644	-0.0760882	0.687352	0.149192	0	0	-0.0139492	-0.0413735	-0.192298	0.084276	0.129765	0	0	-0.0893722	0.151735	0.109203	0.23981	-0.537003	0.358598	1.14142	1.14273	0	0	0.280244	-0.235217	0.456549	1.14893	1.29582	0	0
13.94	0.426337	1.29395	1.12889	0.758983	1.33226	0.957972	0.529217	0.0420826	-0.0837534	0.670135	0.146053	0	0	-0.0127726	-0.0442154	-0.192302	0.0868503	0.129319	0	0	-0.0874641	0.154402	0.109071	0.230906	-0.53766	0.35672	1.14961	1.13991	0	0	0.270527	-0.238239	0.455097	1.1561	1.28883	0	0
13.95	0.429397	1.29072	1.12509	0.75943	1.33507	0.958049	0.533116	0.0442355	-0.0915493	0.652225	0.142069	0	0	-0.0110727	-0.0476399	-0.194299	0.0916186	0.130644	0	0	-0.0859473	0.157359	0.10879	0.22202	-0.537668	0.353709	1.15788	1.14283	0	0	0.260226	-0.240415	0.450487	1.16244	1.29447	0	0
13.96	0.432472	1.28755	1.12101	0.759899	1.33788	0.958139	0.536931	0.0462303	-0.100253	0.634333	0.137406	0	0	-0.00933456	-0.051147	-0.196598	0.0968664	0.132039	0	0	-0.0846953	0.160375	0.108676	0.212831	-0.537164	0.349412	1.1666	1.14571	0	0	0.250166	-0.242395	0.445887	1.16836	1.30014	0	0
